<svg id="OBJECTS" xmlns="http://www.w3.org/2000/svg" xmlns:xlink="http://www.w3.org/1999/xlink" width="625.936" height="595.906" viewBox="0 0 625.936 595.906">
  <defs>
    <linearGradient id="linear-gradient" x1="-0.19" y1="0.047" x2="0.437" y2="0.461" gradientUnits="objectBoundingBox">
      <stop offset="0" stop-color="#ccedf6"/>
      <stop offset="1" stop-color="#fff"/>
    </linearGradient>
    <linearGradient id="linear-gradient-2" x1="-2.785" y1="19.623" x2="-1.631" y2="19.623" gradientUnits="objectBoundingBox">
      <stop offset="0" stop-color="#aa72ed"/>
      <stop offset="1" stop-color="#f4617e"/>
    </linearGradient>
    <linearGradient id="linear-gradient-3" x1="-5.543" y1="26.141" x2="-4.388" y2="26.141" xlink:href="#linear-gradient-2"/>
    <linearGradient id="linear-gradient-4" x1="1.113" y1="0.068" x2="0.236" y2="0.873" xlink:href="#linear-gradient-2"/>
    <linearGradient id="linear-gradient-5" x1="-0.34" y1="0.415" x2="3.212" y2="0.816" gradientUnits="objectBoundingBox">
      <stop offset="0" stop-color="#ffe62a"/>
      <stop offset="0.74" stop-color="#f4617e"/>
    </linearGradient>
  </defs>
  <g id="Group_8" data-name="Group 8" transform="translate(278.089 0)">
    <g id="Group_3" data-name="Group 3" transform="translate(52.47)">
      <g id="Group_2" data-name="Group 2">
        <path id="Path_71" data-name="Path 71" d="M541.481,136l16.8-9.761-.049,17.353-16.8,9.761Z" transform="translate(-516.396 -93.24)" fill="#13a6bf"/>
        <path id="Path_72" data-name="Path 72" d="M541.533,116.7l16.8-9.761-.044,15.626-16.8,9.761Z" transform="translate(-516.356 -106.943)" fill="#13a6bf"/>
        <path id="Path_73" data-name="Path 73" d="M526.792,127.385l16.8-9.761,25.177-10.682-16.8,9.761Z" transform="translate(-526.792 -106.943)" fill="#9de6f2"/>
        <path id="Path_74" data-name="Path 74" d="M541.489,125.841l16.8-9.761c31.914,25.233,56.073,71.447,55.963,110.063l-16.8,9.761C597.56,197.288,573.4,151.074,541.489,125.841Z" transform="translate(-516.355 -100.454)" fill="#16bcd9"/>
        <path id="Path_75" data-name="Path 75" d="M551.97,112.65l-.044,15.627C583.84,153.51,608,199.724,607.887,238.34l-14.8-8.544c.082-29.2-17.517-63.939-41.215-84.146L551.826,163l-25.034-39.669Z" transform="translate(-526.792 -102.89)" fill="#29ceea"/>
      </g>
    </g>
    <g id="Group_4" data-name="Group 4" transform="translate(247.51 10.221)">
      <path id="Path_76" data-name="Path 76" d="M674.247,160.73,694.5,148.963l-.428,151.129-20.249,11.767Z" transform="translate(-617.428 -87.325)" fill="#cf2d52"/>
      <path id="Path_77" data-name="Path 77" d="M663.736,124.687l20.249-11.767,38.857,73.87-20.249,11.768Z" transform="translate(-624.588 -112.92)" fill="#ed456b"/>
      <path id="Path_78" data-name="Path 78" d="M679.992,119.8l38.857,73.87-21.186-12.232-.428,151.129-35.655-20.586.428-151.129-21.164-12.219Z" transform="translate(-640.844 -108.033)" fill="#ff5c81"/>
    </g>
    <g id="Group_7" data-name="Group 7" transform="translate(0 37.539)">
      <path id="Path_79" data-name="Path 79" d="M496.11,150.415V382.277c0,8.373,5.878,18.553,13.13,22.739l321.586,185.67c7.253,4.186,13.13.792,13.13-7.581V351.244Z" transform="translate(-496.11 -113.611)" fill="url(#linear-gradient)"/>
      <path id="Path_80" data-name="Path 80" d="M843.957,351.009V339.1c0-8.373-5.878-18.555-13.13-22.741L509.24,130.687c-7.252-4.186-13.13-.792-13.13,7.579V165.7L843.957,366.526Z" transform="translate(-496.11 -128.894)" fill="url(#linear-gradient-2)"/>
      <path id="Path_81" data-name="Path 81" d="M699.6,463.123,509.033,353.1V189.13L699.6,299.153Z" transform="translate(-486.934 -86.119)" fill="#ded1ed"/>
      <g id="Group_5" data-name="Group 5" transform="translate(238.414 197.215)">
        <path id="Path_82" data-name="Path 82" d="M645.985,444.911l-10.46-6.04V244.217l10.46,6.039Z" transform="translate(-635.524 -244.217)" fill="#ccedf6"/>
        <path id="Path_83" data-name="Path 83" d="M656.1,450.752l-10.461-6.039V250.057L656.1,256.1Z" transform="translate(-628.341 -240.069)" fill="#ccedf6"/>
        <path id="Path_84" data-name="Path 84" d="M666.217,456.592l-10.46-6.04V255.9l10.46,6.039Z" transform="translate(-621.157 -235.922)" fill="#ccedf6"/>
        <path id="Path_85" data-name="Path 85" d="M676.334,462.433l-10.46-6.039V261.739l10.46,6.039Z" transform="translate(-613.973 -231.774)" fill="#ccedf6"/>
        <path id="Path_86" data-name="Path 86" d="M686.45,468.274l-10.461-6.039V267.579l10.461,6.039Z" transform="translate(-606.789 -227.627)" fill="#ccedf6"/>
      </g>
      <path id="Path_87" data-name="Path 87" d="M645.985,429.286l-10.46-6.039V266.221l10.46,6.039Z" transform="translate(-397.111 -31.376)" fill="#f4617e"/>
      <path id="Path_88" data-name="Path 88" d="M656.1,419.4l-10.461-6.039V294.2l10.461,6.039Z" transform="translate(-389.927 -11.507)" fill="#aa72ed"/>
      <path id="Path_89" data-name="Path 89" d="M666.217,446.947l-10.46-6.039V269.481l10.46,6.039Z" transform="translate(-382.743 -29.061)" fill="#f4617e"/>
      <path id="Path_90" data-name="Path 90" d="M676.334,420.6l-10.46-6.039V320.651l10.46,6.039Z" transform="translate(-375.559 7.276)" fill="#aa72ed"/>
      <path id="Path_91" data-name="Path 91" d="M686.45,414.856l-10.461-6.039V342.8l10.461,6.039Z" transform="translate(-368.376 23.007)" fill="#f4617e"/>
      <path id="Path_92" data-name="Path 92" d="M645.872,298.162c-3.559-8.554-6.074-17.409-10.806-25.551-8.711-14.991-24.439-24.085-33.166-19.179-6.131,3.448-8.465,12.285-10.331,20.92s-3.687,17.778-9.163,22.3-13.527,3.848-20.475-6.045c-8.653-12.325-10.637-31.965-21-41.154-6.145-5.447-12.345-3.665-15.63.727s-4.787,10.9-8.176,15.157a13.53,13.53,0,0,1-8.091,4.87v42.467L699.6,422.694V354.946a55.114,55.114,0,0,1-11.759-5.332C671.121,339.636,654.81,319.638,645.872,298.162Z" transform="translate(-486.934 -45.689)" fill="url(#linear-gradient-3)"/>
      <path id="Path_93" data-name="Path 93" d="M634.422,260.182,509.033,187.789V168.742l125.389,72.393Z" transform="translate(-486.934 -100.597)" fill="#f4617e"/>
      <g id="Group_6" data-name="Group 6" transform="translate(24.98 28.184)">
        <path id="Path_94" data-name="Path 94" d="M510.717,147.934c0-2.286,1.606-3.213,3.586-2.069a7.926,7.926,0,0,1,3.584,6.209c0,2.286-1.606,3.213-3.584,2.069A7.923,7.923,0,0,1,510.717,147.934Z" transform="translate(-510.717 -145.374)" fill="#fff"/>
        <ellipse id="Ellipse_1" data-name="Ellipse 1" cx="2.927" cy="5.07" rx="2.927" ry="5.07" transform="translate(15.006 11.223) rotate(-30)" fill="#fff"/>
        <path id="Path_95" data-name="Path 95" d="M530,159.069c0-2.286,1.606-3.213,3.586-2.071a7.931,7.931,0,0,1,3.584,6.209c0,2.286-1.606,3.213-3.584,2.071A7.926,7.926,0,0,1,530,159.069Z" transform="translate(-497.022 -137.468)" fill="#fff"/>
      </g>
    </g>
  </g>
  <g id="Group_18" data-name="Group 18" transform="translate(0 388.718)">
    <g id="Group_10" data-name="Group 10" transform="translate(223.748 118.572)">
      <g id="Group_9" data-name="Group 9">
        <path id="Path_96" data-name="Path 96" d="M537.393,417.017l-1.3-11.061-3.978,2.3c-16.034-7.285-38.271-5.819-53.26,2.834l8.61,4.97c9.638-5.565,24.386-6.425,35.606-2.582l-4.833,2.791Z" transform="translate(-454.023 -403.584)" fill="#ed456b"/>
        <path id="Path_97" data-name="Path 97" d="M527.84,442.074c12.732-9.253,10.11-22.079-4.923-30.758l-8.609,4.971c9.638,5.565,11.129,14.079,4.473,20.557l-4.834-2.791-1.3,11.059,19.157-.753Z" transform="translate(-430.028 -398.094)" fill="#7c53ad"/>
        <path id="Path_98" data-name="Path 98" d="M536.009,437.023l-8.609-4.97c-9.64,5.565-24.388,6.425-35.608,2.582l4.833-2.791-19.157-.753,1.3,11.061,3.978-2.3C498.784,447.141,521.022,445.676,536.009,437.023Z" transform="translate(-455.006 -384.051)" fill="#ed456b"/>
        <path id="Path_99" data-name="Path 99" d="M481.415,419.72l4.833,2.791,1.3-11.059-19.157.751,3.99,2.3c-12.544,9.259-10.062,22.107,4.9,30.743l8.609-4.971C476.249,434.713,474.759,426.2,481.415,419.72Z" transform="translate(-464.334 -397.997)" fill="#7c53ad"/>
      </g>
    </g>
    <g id="Group_11" data-name="Group 11" transform="translate(0 48.716)">
      <path id="Path_100" data-name="Path 100" d="M533.863,387.946l11.288,6.517L375.7,492.293l-11.288-6.517Z" transform="translate(-311.538 -344.833)" fill="#7c53ad"/>
      <path id="Path_101" data-name="Path 101" d="M505.981,381.643l11.288,6.517L388.679,462.4l-11.288-6.517Z" transform="translate(-302.325 -349.309)" fill="#aa72ed"/>
      <path id="Path_102" data-name="Path 102" d="M518.483,375.341l11.288,6.517-184.988,106.8L333.5,482.143Z" transform="translate(-333.495 -353.784)" fill="#7c53ad"/>
      <path id="Path_103" data-name="Path 103" d="M472.831,369.038l11.288,6.517L382.783,434.062l-11.288-6.517Z" transform="translate(-306.512 -358.26)" fill="#aa72ed"/>
      <path id="Path_104" data-name="Path 104" d="M449.415,362.735l11.288,6.517-71.234,41.127-11.288-6.517Z" transform="translate(-301.764 -362.735)" fill="#7c53ad"/>
    </g>
    <g id="Group_13" data-name="Group 13" transform="translate(252.077)">
      <g id="Group_12" data-name="Group 12">
        <path id="Path_105" data-name="Path 105" d="M560.636,351.289l-.073,25.634-50.147,29.142.073-25.634Z" transform="translate(-459.94 -322.147)" fill="#9cd6e6"/>
        <path id="Path_106" data-name="Path 106" d="M531.448,380.432l-.073,25.634L480.9,376.924l.073-25.634Z" transform="translate(-480.9 -322.147)" fill="#b1e7f6"/>
        <path id="Path_107" data-name="Path 107" d="M581.565,363.39l-50.147,29.142-50.476-29.142,50.148-29.142Z" transform="translate(-480.869 -334.248)" fill="#d8f0f6"/>
      </g>
    </g>
    <g id="Group_14" data-name="Group 14" transform="translate(473.412 99.968)">
      <path id="Path_108" data-name="Path 108" d="M657.053,402.673l-.127,44.984L627.592,464.7l.127-44.984Z" transform="translate(-598.066 -385.627)" fill="#13a6bf"/>
      <path id="Path_109" data-name="Path 109" d="M639.98,419.72l-.128,44.984-29.526-17.047.128-44.984Z" transform="translate(-610.326 -385.627)" fill="#16bcd9"/>
      <path id="Path_110" data-name="Path 110" d="M669.26,409.752,639.927,426.8,610.4,409.752l29.334-17.047Z" transform="translate(-610.273 -392.705)" fill="#29ceea"/>
    </g>
    <g id="Group_15" data-name="Group 15" transform="translate(473.412 55.418)">
      <path id="Path_111" data-name="Path 111" d="M657.053,376.622l-.127,44.984-29.334,17.047.127-44.984Z" transform="translate(-598.066 -359.576)" fill="#7c53ad"/>
      <path id="Path_112" data-name="Path 112" d="M639.98,393.669l-.128,44.984-29.526-17.047.128-44.984Z" transform="translate(-610.326 -359.576)" fill="#aa72ed"/>
      <path id="Path_113" data-name="Path 113" d="M669.26,383.7l-29.334,17.047L610.4,383.7l29.334-17.047Z" transform="translate(-610.273 -366.654)" fill="#b98eed"/>
    </g>
    <g id="Group_16" data-name="Group 16" transform="translate(542.6 84.97)">
      <path id="Path_114" data-name="Path 114" d="M697.557,393.905l-.17,59.979-29.334,17.047.17-59.979Z" transform="translate(-638.522 -376.855)" fill="#ffad2a"/>
      <path id="Path_115" data-name="Path 115" d="M680.486,410.953l-.17,59.979-29.532-17.05.17-59.979Z" transform="translate(-650.784 -376.856)" fill="#fed859"/>
      <path id="Path_116" data-name="Path 116" d="M709.749,400.985l-29.334,17.047-29.531-17.05,29.334-17.047Z" transform="translate(-650.714 -383.935)" fill="#ffef7a"/>
    </g>
    <g id="Group_17" data-name="Group 17" transform="translate(404.405 107.462)">
      <path id="Path_117" data-name="Path 117" d="M616.683,407.058l-.106,37.487-29.334,17.047.106-37.487Z" transform="translate(-557.711 -390.008)" fill="#ccc"/>
      <path id="Path_118" data-name="Path 118" d="M599.611,424.106l-.106,37.487-29.531-17.05.106-37.487Z" transform="translate(-569.974 -390.009)" fill="#f2f2f2"/>
      <path id="Path_119" data-name="Path 119" d="M628.9,414.138l-29.334,17.047-29.531-17.05,29.334-17.047Z" transform="translate(-569.93 -397.087)" fill="#fff"/>
    </g>
  </g>
  <g id="Group_54" data-name="Group 54" transform="translate(123.062 0)">
    <g id="Group_25" data-name="Group 25" transform="translate(0 153.943)">
      <g id="Group_19" data-name="Group 19">
        <path id="Path_120" data-name="Path 120" d="M440.447,303.107l-12.725-7.395c5.643,3.217,13.412,2.724,21.989-2.227,9.648-5.572,18.267-15.615,23.952-26.857,4.385-8.715,7.025-18.158,7-26.768-.027-9.855-3.535-16.759-9.166-19.969l12.725,7.395c5.631,3.21,9.137,10.114,9.166,19.969.024,8.61-2.616,18.054-7,26.77-5.683,11.241-14.3,21.286-23.95,26.856C453.859,305.831,446.09,306.323,440.447,303.107Z" transform="translate(-389.646 -180.68)" fill="#ff8fa8"/>
        <path id="Path_121" data-name="Path 121" d="M507.756,203.587c10.881,6.2,17.652,19.54,17.7,38.561.048,16.636-5.04,34.83-13.535,51.662-10.941,21.693-27.582,41.079-46.221,51.84-16.564,9.563-31.572,10.505-42.453,4.3l20.371-35.271c5.643,3.217,13.412,2.724,21.989-2.227,9.648-5.57,18.267-15.615,23.95-26.856,4.386-8.716,7.027-18.16,7-26.77-.029-9.855-3.535-16.759-9.166-19.969Z" transform="translate(-392.821 -192.257)" fill="url(#linear-gradient-4)"/>
        <path id="Path_122" data-name="Path 122" d="M453.132,212.577l-12.725-7.395c16.552-9.558,31.56-10.5,42.442-4.286l12.725,7.395C484.69,202.077,469.684,203.019,453.132,212.577Z" transform="translate(-380.638 -196.962)" fill="#8fddea"/>
        <path id="Path_123" data-name="Path 123" d="M447.848,209.507c16.552-9.558,31.558-10.5,42.442-4.286L469.931,240.5c-5.655-3.208-13.424-2.717-21.989,2.228Z" transform="translate(-375.354 -193.891)" fill="#29ceea"/>
        <path id="Path_124" data-name="Path 124" d="M435.887,329.712l-12.725-7.395c-10.882-6.2-17.65-19.541-17.7-38.575-.048-16.609,5.04-34.816,13.536-51.649l12.725,7.395c-8.5,16.833-13.583,35.04-13.535,51.65C418.235,310.173,425,323.511,435.887,329.712Z" transform="translate(-405.457 -172.014)" fill="#ffef7a"/>
        <path id="Path_125" data-name="Path 125" d="M426.434,236.418l22.387,8.21c-4.409,8.713-7.037,18.139-7.013,26.748.027,9.869,3.523,16.766,9.166,19.983L430.6,326.642c-10.883-6.2-17.652-19.54-17.7-38.573C412.85,271.458,417.936,253.251,426.434,236.418Z" transform="translate(-400.173 -168.944)" fill="url(#linear-gradient-5)"/>
        <path id="Path_126" data-name="Path 126" d="M467.046,206.093l.094,33.219c-9.66,5.577-18.279,15.622-23.94,26.85l-22.387-8.21C431.754,236.259,448.394,216.86,467.046,206.093Z" transform="translate(-394.552 -190.478)" fill="#aa72ed"/>
        <path id="Path_127" data-name="Path 127" d="M426.1,261.023l-12.725-7.395c10.941-21.693,27.582-41.092,46.233-51.859l12.723,7.395C453.678,219.93,437.038,239.33,426.1,261.023Z" transform="translate(-399.836 -193.548)" fill="#b98eed"/>
      </g>
      <g id="Group_24" data-name="Group 24" transform="translate(39.682 150.23)">
        <g id="Group_20" data-name="Group 20" transform="translate(9.81 74.215)">
          <path id="Path_128" data-name="Path 128" d="M443.458,370.527s8.063,3.694,8.21,10.014-16.638-3.321-17.168-5.724,1.083-7.032,2.666-6.471S443.458,370.527,443.458,370.527Z" transform="translate(-434.398 -299.738)" fill="#7c53ad"/>
          <path id="Path_129" data-name="Path 129" d="M437.566,332.113s4.275,39.367,0,64.206" transform="translate(-432.148 -325.435)" fill="none" stroke="#f4617e" stroke-linecap="round" stroke-linejoin="round" stroke-width="5.517"/>
          <path id="Path_130" data-name="Path 130" d="M452.59,366.331s8.061,3.694,8.21,10.013-16.639-3.321-17.168-5.722,1.082-7.034,2.666-6.471S452.59,366.331,452.59,366.331Z" transform="translate(-427.913 -302.718)" fill="#7c53ad"/>
          <path id="Path_131" data-name="Path 131" d="M445.343,328.208s5.534,39.209,2.056,64.174" transform="translate(-426.626 -328.208)" fill="none" stroke="#f4617e" stroke-linecap="round" stroke-linejoin="round" stroke-width="5.517"/>
          <path id="Path_132" data-name="Path 132" d="M450.075,333.7s-6.652-3.689-10.811,3.165-1.98,13.8,9.18,5.517S450.075,333.7,450.075,333.7Z" transform="translate(-432.336 -325.014)" fill="#f4617e"/>
        </g>
        <g id="Group_21" data-name="Group 21">
          <path id="Path_133" data-name="Path 133" d="M453.856,284.81c.125,2.6.1,5.753-.621,7.314" transform="translate(-411.212 -284.81)" fill="none" stroke="#fcb28d" stroke-linecap="round" stroke-linejoin="round" stroke-width="3.338"/>
          <path id="Path_134" data-name="Path 134" d="M445,328.4s12.848-11.475,14.418-37.409" transform="translate(-417.06 -280.419)" fill="none" stroke="#24b4cc" stroke-linecap="round" stroke-linejoin="round" stroke-width="4.597"/>
          <path id="Path_135" data-name="Path 135" d="M435.4,323.347l-1,27.141c.007,2.492,2.418,6.669,4.571,7.921h0a7.016,7.016,0,0,0,7.032.01l10.4-6a7.014,7.014,0,0,0,3.507-6.093l-.065-23.141c0-.409-.08-.807-.108-1.214-.27-3.913-1.652-6.741-3.7-9.972a7.038,7.038,0,0,0-2.594-2.421c-.616-.334-1.2-.636-1.661-.876a6.9,6.9,0,0,0-2.273-.711c-2.184-.284-4.207-.393-5.424.311a25.567,25.567,0,0,0-3.714,3.15,7.132,7.132,0,0,0-.487.528A18.945,18.945,0,0,0,435.4,323.347Z" transform="translate(-424.588 -268.507)" fill="#29ceea"/>
          <path id="Path_136" data-name="Path 136" d="M441.2,314.624a3.332,3.332,0,0,1-.1-5.736l.044-.026a8.045,8.045,0,0,1,3.08-1.012,3.278,3.278,0,0,1,1.852.344l2.432,1.228a3.2,3.2,0,0,1,.672,5.007,8.358,8.358,0,0,1-1.72,1.349,3.833,3.833,0,0,1-4.024.127,3.111,3.111,0,0,1-.28-.147C442.555,315.407,441.877,315.014,441.2,314.624Z" transform="translate(-420.957 -268.463)" fill="#fcb28d"/>
          <path id="Path_137" data-name="Path 137" d="M441.631,307.225a4.108,4.108,0,0,0,3.709,0,1.333,1.333,0,0,0,.766-1.144h0v5.011l0,0a1.364,1.364,0,0,1-.764,1.081,4.108,4.108,0,0,1-3.709,0,1.3,1.3,0,0,1-.764-1.081v-4.939A1.293,1.293,0,0,0,441.631,307.225Z" transform="translate(-419.994 -269.705)" fill="#f09365"/>
          <path id="Path_138" data-name="Path 138" d="M440.872,306.083c0,.024-.005.048-.005.072v-.073Z" transform="translate(-419.994 -269.705)" fill="#fcb28d"/>
          <path id="Path_139" data-name="Path 139" d="M428.784,286.927c-.19,2.592-.236,5.749.441,7.326" transform="translate(-428.661 -283.307)" fill="none" stroke="#fcb28d" stroke-linecap="round" stroke-linejoin="round" stroke-width="3.338"/>
          <path id="Path_140" data-name="Path 140" d="M442.243,330.864s-12.564-11.786-13.495-37.751" transform="translate(-428.599 -278.914)" fill="none" stroke="#24b4cc" stroke-linecap="round" stroke-linejoin="round" stroke-width="4.597"/>
        </g>
        <g id="Group_23" data-name="Group 23" transform="translate(12.49 12.952)">
          <path id="Path_141" data-name="Path 141" d="M437.1,305.96l1.982,6a9.137,9.137,0,0,0,17.352-5.731l-1.982-6a9.113,9.113,0,0,0-.908-1.943,5.553,5.553,0,0,0-.306-.463A9.137,9.137,0,0,0,437.1,305.96Z" transform="translate(-435.487 -291.264)" fill="#fcb28d"/>
          <g id="Group_22" data-name="Group 22" transform="translate(2.363 17.288)">
            <path id="Path_142" data-name="Path 142" d="M438.163,302.953a1.494,1.494,0,0,1,.67-.46l2.251.474a1.5,1.5,0,0,0-.67.46,3.707,3.707,0,0,0-.679,3.28,1.181,1.181,0,0,0,.805.87l-2.251-.474a1.181,1.181,0,0,1-.805-.872A3.705,3.705,0,0,1,438.163,302.953Z" transform="translate(-437.347 -302.493)" fill="#f59d71"/>
            <path id="Path_143" data-name="Path 143" d="M439.479,303.23a3.707,3.707,0,0,0-.679,3.28,1.027,1.027,0,0,0,1.9.388,2.915,2.915,0,0,0,.527-.888l-1.079-3.241A1.5,1.5,0,0,0,439.479,303.23Z" transform="translate(-436.413 -302.296)" fill="#fcb28d"/>
            <path id="Path_144" data-name="Path 144" d="M439.5,303.69c.24-.268.532-.352.761-.181l.328.987a2,2,0,0,1-.168.722,1.591,1.591,0,0,1-.269.436c-.256.289-.571.363-.809.144a1.632,1.632,0,0,1-.111-1.676,1.573,1.573,0,0,1,.267-.431" transform="translate(-436.126 -301.835)" fill="#e88861"/>
          </g>
          <path id="Path_145" data-name="Path 145" d="M447.994,292.391c-3.386.073-4.978,1.354-5.7,2.329a12.486,12.486,0,0,0-3.531,2.049,7.705,7.705,0,0,0-2.622,7.547l.66,3.1a3.42,3.42,0,0,0,3.3,2.707l.033,0a2.835,2.835,0,0,1,2.433,1.6c.433.812,1.118,1.361,2.015.853,1.433-.812.094-1.664.59-2.986.236-.626-.2-1.228-.516-2.038.645-.293,1.082-1.255,1.288-3.023a5.153,5.153,0,0,0,1.849-1.084,4.662,4.662,0,0,1,2.423-1.743,5.666,5.666,0,0,0,2.009-1.85,3.27,3.27,0,0,0,1.59-3.651l0,0C455.046,293.651,453.5,292.27,447.994,292.391Z" transform="translate(-435.965 -292.384)" fill="#2f305e"/>
        </g>
      </g>
    </g>
    <g id="Group_32" data-name="Group 32" transform="translate(312.285)">
      <g id="Group_27" data-name="Group 27">
        <g id="Group_26" data-name="Group 26">
          <path id="Path_146" data-name="Path 146" d="M622.356,139.032l-11.611-6.748-.034-12.011,11.611,6.748Z" transform="translate(-571.989 -97.476)" fill="#955ed6"/>
          <path id="Path_147" data-name="Path 147" d="M622.284,113.69l-11.611-6.748,17.4,7.385,11.611,6.748Z" transform="translate(-572.016 -106.943)" fill="#aa72ed"/>
          <path id="Path_148" data-name="Path 148" d="M622.315,124.493,610.7,117.745l-.03-10.8,11.611,6.748Z" transform="translate(-572.016 -106.943)" fill="#955ed6"/>
          <path id="Path_149" data-name="Path 149" d="M599.68,196.1l-11.612-6.748c-.075-26.7,16.638-58.652,38.688-76.088l11.61,6.748C616.317,137.443,599.6,169.4,599.68,196.1Z" transform="translate(-588.068 -102.457)" fill="#aa72ed"/>
          <path id="Path_150" data-name="Path 150" d="M633.513,110.888l17.406,7.386L633.613,145.7l-.034-12.01c-16.369,13.975-28.549,38-28.492,58.185l-10.228,5.907c-.075-26.7,16.638-58.652,38.686-76.088Z" transform="translate(-583.246 -104.141)" fill="#7c53ad"/>
        </g>
      </g>
      <g id="Group_31" data-name="Group 31" transform="translate(17.7 88.318)">
        <g id="Group_30" data-name="Group 30">
          <g id="Group_28" data-name="Group 28">
            <path id="Path_151" data-name="Path 151" d="M598.418,158.587c.5,2.512,1.274,5.522,2.327,6.842" transform="translate(-598.418 -158.587)" fill="none" stroke="#fcb28d" stroke-linecap="round" stroke-linejoin="round" stroke-width="3.287"/>
            <path id="Path_152" data-name="Path 152" d="M616.035,194.585s-10.122-7.978-15.591-30.618" transform="translate(-596.979 -154.767)" fill="none" stroke="#7c53ad" stroke-linecap="round" stroke-linejoin="round" stroke-width="3.966"/>
            <path id="Path_153" data-name="Path 153" d="M631.941,193.76l-.05,18.346-24.037-13.869.017-4.643c0-.4.082-.792.106-1.189.265-3.858,1.628-6.642,3.644-9.821.628-1,4.872-6.642,11.762-3.643a11.145,11.145,0,0,1,4.139,3.625A18.662,18.662,0,0,1,631.941,193.76Z" transform="translate(-591.717 -144.75)" fill="#aa72ed"/>
            <path id="Path_154" data-name="Path 154" d="M620.181,184.928c1.949-1.541,2.457-4.429.1-5.647l-.041-.026c-3.608-2.026-7.251.551-7.251.551-1.777,1.033-2.312,3.7-.662,4.93C614.962,186.695,619.127,185.761,620.181,184.928Z" transform="translate(-589.247 -144.462)" fill="#fcb28d"/>
            <path id="Path_155" data-name="Path 155" d="M617.534,177.743a4.04,4.04,0,0,1-3.651,0,1.311,1.311,0,0,1-.754-1.125l0,0v4.935h0a1.338,1.338,0,0,0,.752,1.064,4.039,4.039,0,0,0,3.651,0,1.274,1.274,0,0,0,.752-1.064h0v-4.864A1.28,1.28,0,0,1,617.534,177.743Z" transform="translate(-587.973 -145.784)" fill="#f09365"/>
            <path id="Path_156" data-name="Path 156" d="M616.141,176.618c0,.024.007.048.007.07v-.072Z" transform="translate(-585.833 -145.784)" fill="#fcb28d"/>
            <path id="Path_157" data-name="Path 157" d="M619.534,217.223c.713-2.459,1.4-5.489,1.074-7.147" transform="translate(-583.424 -122.024)" fill="none" stroke="#fcb28d" stroke-linecap="round" stroke-linejoin="round" stroke-width="3.287"/>
            <path id="Path_158" data-name="Path 158" d="M619.439,184.917s10.267,6.765,2.283,42.19" transform="translate(-583.491 -139.89)" fill="none" stroke="#7c53ad" stroke-linecap="round" stroke-linejoin="round" stroke-width="3.966"/>
          </g>
          <g id="Group_29" data-name="Group 29" transform="translate(18.676 9.136)">
            <path id="Path_159" data-name="Path 159" d="M627.394,173.583v6.223a9,9,0,0,1-17.992,0v-6.223a8.9,8.9,0,0,1,.25-2.1c.039-.18.087-.354.144-.528a9,9,0,0,1,17.6,2.625Z" transform="translate(-609.294 -163.46)" fill="#fcb28d"/>
            <path id="Path_160" data-name="Path 160" d="M645.356,185.173a5.287,5.287,0,0,0-1.542-3.786c-1.961-1.907-4.085-2.851-5.761-2.705-4.578-5.359-9.888-10.413-11.331-11.283a2.8,2.8,0,0,1-.64-.575,7.579,7.579,0,0,0-2.924-2.047,12.333,12.333,0,0,0-9.855.38l-2.257,1.091a2.982,2.982,0,0,0,.426,5.556l.1.026.188.041a2.884,2.884,0,0,1,1.862,1.378c.065.106.138.214.219.322a13.2,13.2,0,0,0,3.727,3.366,2.755,2.755,0,0,1,1.053,1.024,19.6,19.6,0,0,1,1.915,3.253c1.454,3.6,1.269,2.327.523,7.357-.691,4.669,2.728,10.55,8.888,11.788.32,1.469,1.308,2.731,3.641,3.07,6.4.93,14.765-2.454,15.075-8.816C648.88,190.133,647.56,186.617,645.356,185.173Z" transform="translate(-609.339 -163.93)" fill="#2f305e"/>
          </g>
        </g>
      </g>
    </g>
    <g id="Group_42" data-name="Group 42" transform="translate(224.348 302.637)">
      <g id="Group_33" data-name="Group 33" transform="translate(10.07)">
        <line id="Line_1" data-name="Line 1" x1="34.528" y2="171.59" transform="translate(26.277 14.755)" fill="none" stroke="#7c53ad" stroke-linecap="round" stroke-linejoin="round" stroke-width="2.758"/>
        <line id="Line_2" data-name="Line 2" x1="34.528" y2="171.59" stroke-width="2.758" stroke="#7c53ad" stroke-linecap="round" stroke-linejoin="round" fill="none"/>
        <line id="Line_3" data-name="Line 3" x2="24.414" y2="13.774" transform="translate(31.612 16.334)" fill="none" stroke="#7c53ad" stroke-linecap="round" stroke-linejoin="round" stroke-width="2.758"/>
        <line id="Line_4" data-name="Line 4" x2="24.414" y2="13.774" transform="translate(27.206 36.223)" fill="none" stroke="#7c53ad" stroke-linecap="round" stroke-linejoin="round" stroke-width="2.758"/>
        <line id="Line_5" data-name="Line 5" x2="24.414" y2="13.774" transform="translate(24.191 58.055)" fill="none" stroke="#7c53ad" stroke-linecap="round" stroke-linejoin="round" stroke-width="2.758"/>
        <line id="Line_6" data-name="Line 6" x2="24.414" y2="13.773" transform="translate(20.104 76.96)" fill="none" stroke="#7c53ad" stroke-linecap="round" stroke-linejoin="round" stroke-width="2.758"/>
        <line id="Line_7" data-name="Line 7" x2="24.414" y2="13.774" transform="translate(16.147 97.537)" fill="none" stroke="#7c53ad" stroke-linecap="round" stroke-linejoin="round" stroke-width="2.758"/>
        <line id="Line_8" data-name="Line 8" x2="24.414" y2="13.774" transform="translate(11.984 116.725)" fill="none" stroke="#7c53ad" stroke-linecap="round" stroke-linejoin="round" stroke-width="2.758"/>
        <line id="Line_9" data-name="Line 9" x2="24.414" y2="13.773" transform="translate(7.897 137.141)" fill="none" stroke="#7c53ad" stroke-linecap="round" stroke-linejoin="round" stroke-width="2.758"/>
        <line id="Line_10" data-name="Line 10" x2="24.414" y2="13.773" transform="translate(3.715 157.557)" fill="none" stroke="#7c53ad" stroke-linecap="round" stroke-linejoin="round" stroke-width="2.758"/>
      </g>
      <g id="Group_41" data-name="Group 41" transform="translate(0 138.979)">
        <g id="Group_34" data-name="Group 34" transform="translate(3.065)">
          <path id="Path_161" data-name="Path 161" d="M543.506,369.892c1.8-1.926,4.128-4.132,5.772-4.711" transform="translate(-534.84 -365.181)" fill="none" stroke="#fcb28d" stroke-linecap="round" stroke-linejoin="round" stroke-width="3.388"/>
          <path id="Path_162" data-name="Path 162" d="M540.018,405.633c-1.406-10.4-4.477-19.574,5.39-36.571" transform="translate(-538.438 -362.425)" fill="none" stroke="#cca1ff" stroke-linecap="round" stroke-linejoin="round" stroke-width="4"/>
        </g>
        <g id="Group_35" data-name="Group 35" transform="translate(4.441 78.316)">
          <path id="Path_163" data-name="Path 163" d="M546.7,451.512s-1.17,5.517,0,7.022,2.464,3.365,5.279,2.042,14.084-6.558,14.62-9.683-4.853-5.021-14.825-1.555Z" transform="translate(-534.314 -385.054)" fill="#7c53ad"/>
          <path id="Path_164" data-name="Path 164" d="M539.763,448.627s-1.17,5.517,0,7.022,2.464,3.366,5.278,2.044,14.086-6.558,14.621-9.683-4.853-5.023-14.827-1.556Z" transform="translate(-539.243 -387.102)" fill="#7c53ad"/>
          <path id="Path_165" data-name="Path 165" d="M540.472,410.977s6.849,26.645,2.422,60.965" transform="translate(-538.37 -410.977)" fill="none" stroke="#fed859" stroke-linecap="round" stroke-linejoin="round" stroke-width="5.123"/>
          <path id="Path_166" data-name="Path 166" d="M547.287,413.495s6.849,26.645,2.422,60.965" transform="translate(-533.531 -409.189)" fill="none" stroke="#fed859" stroke-linecap="round" stroke-linejoin="round" stroke-width="5.123"/>
          <path id="Path_167" data-name="Path 167" d="M542.155,424.466s6.384,5.24,9.7,5.407,3.013-8.422.607-12.3-9.351-8.229-11.013-4.737S542.155,424.466,542.155,424.466Z" transform="translate(-538.097 -410.563)" fill="#fed859"/>
        </g>
        <g id="Group_38" data-name="Group 38" transform="translate(0 34.273)">
          <path id="Path_168" data-name="Path 168" d="M561.525,403.378l-.084,29.457c.084,6.5-.5,6.049-2.685,7.319a9.147,9.147,0,0,1-7.993-1.173l-10.557-6.1a7.117,7.117,0,0,1-3.56-6.185l.067-23.488c0-.414.081-.821.11-1.233.274-3.973,1.96-10.131,6.385-12.58,6.926-3.831,13.585,2.271,13.765,2.439C561,395.616,561.535,399.542,561.525,403.378Z" transform="translate(-536.646 -383.153)" fill="#aa72ed"/>
          <g id="Group_37" data-name="Group 37" transform="translate(9.346)">
            <path id="Path_169" data-name="Path 169" d="M546.653,385.692a4.311,4.311,0,0,0-3.767-.07,1.2,1.2,0,0,0,0,2.245,4.173,4.173,0,0,0,3.766,0A1.15,1.15,0,0,0,546.653,385.692Z" transform="translate(-542.111 -385.223)" fill="#fca579"/>
            <g id="Group_36" data-name="Group 36" transform="translate(0 1.482)">
              <path id="Path_170" data-name="Path 170" d="M546.655,387.252a4.174,4.174,0,0,1-3.766,0,1.354,1.354,0,0,1-.776-1.161l0,0v5.088l0,0a1.381,1.381,0,0,0,.775,1.1,4.173,4.173,0,0,0,3.766,0,1.321,1.321,0,0,0,.776-1.1h0v-5.012A1.322,1.322,0,0,1,546.655,387.252Z" transform="translate(-542.111 -386.089)" fill="#fcb28d"/>
              <path id="Path_171" data-name="Path 171" d="M545.219,386.091c0,.024.005.048.005.073v-.075Z" transform="translate(-539.904 -386.089)" fill="#fcb28d"/>
            </g>
          </g>
        </g>
        <g id="Group_39" data-name="Group 39" transform="translate(2.779 14.555)">
          <path id="Path_172" data-name="Path 172" d="M556.819,382.961v6.416a9.274,9.274,0,0,1-18.548,0v-6.416a9.178,9.178,0,0,1,.257-2.162,5.4,5.4,0,0,1,.147-.544,9.274,9.274,0,0,1,18.144,2.705Z" transform="translate(-538.271 -373.692)" fill="#fcb28d"/>
        </g>
        <path id="Path_173" data-name="Path 173" d="M556.476,378.345s-1.526,5.048-3.255,6.5-.716,4.843-.716,4.843-.928,1.478-2.045.975-1.787-.166-1.452,2.062,2.062,1.236,2.062,1.236a9.278,9.278,0,0,1-1.784,3.612c-1.226,1.283-3.819.725-6.257.279s-3.848-.094-4.109-2.408-1.56-7.624-.891-12.137,2.452-6.074,3.343-6.911c0,0-.445-3.177,4.794-3.454S557.768,375.281,556.476,378.345Z" transform="translate(-535.798 -359.686)" fill="#2f305e"/>
        <g id="Group_40" data-name="Group 40" transform="translate(21.166 14.245)">
          <path id="Path_174" data-name="Path 174" d="M564.863,380.324c-.739-2.534-1.813-5.553-3.017-6.813" transform="translate(-539.917 -373.511)" fill="none" stroke="#fcb28d" stroke-linecap="round" stroke-linejoin="round" stroke-width="3.388"/>
          <path id="Path_175" data-name="Path 175" d="M549.023,407.055c8.706-5.861,17.6-9.659,23.75-28.326" transform="translate(-549.023 -369.806)" fill="none" stroke="#cca1ff" stroke-linecap="round" stroke-linejoin="round" stroke-width="4"/>
        </g>
      </g>
    </g>
    <g id="Group_53" data-name="Group 53" transform="translate(142.949 171.268)">
      <g id="Group_44" data-name="Group 44">
        <path id="Path_176" data-name="Path 176" d="M581.979,340.725,489.047,287.07V207.093l92.932,53.655Z" transform="translate(-489.047 -207.093)" fill="#fff"/>
        <g id="Group_43" data-name="Group 43" transform="translate(10.707 17.489)">
          <path id="Path_177" data-name="Path 177" d="M495.308,222.363v-5.044L552.092,250.1v5.044Z" transform="translate(-495.308 -217.319)" fill="#f4617e"/>
          <path id="Path_178" data-name="Path 178" d="M495.308,227.241V222.2L538.4,247.076v5.044Z" transform="translate(-495.308 -213.856)" fill="#aa72ed"/>
          <path id="Path_179" data-name="Path 179" d="M495.308,232.118v-5.044L557.3,262.866v5.044Z" transform="translate(-495.308 -210.392)" fill="#f4617e"/>
          <path id="Path_180" data-name="Path 180" d="M495.308,237v-5.044l33.959,19.606V256.6Z" transform="translate(-495.308 -206.928)" fill="#aa72ed"/>
          <path id="Path_181" data-name="Path 181" d="M495.308,241.874V236.83l23.872,13.782v5.044Z" transform="translate(-495.308 -203.464)" fill="#f4617e"/>
        </g>
        <path id="Path_182" data-name="Path 182" d="M521.4,268.288l-6.952-4.014v-8.027l6.952,4.014Z" transform="translate(-471.007 -172.188)" fill="#b1e7f6"/>
        <path id="Path_183" data-name="Path 183" d="M527.435,271.77l-6.952-4.014v-8.027l6.952,4.014Z" transform="translate(-466.724 -169.715)" fill="#b1e7f6"/>
        <path id="Path_184" data-name="Path 184" d="M533.466,275.252l-6.952-4.014V263.21l6.952,4.014Z" transform="translate(-462.442 -167.243)" fill="#b1e7f6"/>
        <path id="Path_185" data-name="Path 185" d="M539.5,278.733l-6.952-4.014v-8.027l6.952,4.014Z" transform="translate(-458.159 -164.77)" fill="#b1e7f6"/>
      </g>
      <g id="Group_52" data-name="Group 52" transform="translate(13.054 98.142)">
        <g id="Group_45" data-name="Group 45" transform="translate(12.854)">
          <path id="Path_186" data-name="Path 186" d="M508.995,271.56c.484-2.594,1.252-5.7,2.322-7.078" transform="translate(-500.789 -264.482)" fill="none" stroke="#fcb28d" stroke-linecap="round" stroke-linejoin="round" stroke-width="3.388"/>
          <path id="Path_187" data-name="Path 187" d="M505.29,305.244c-1.023-10.447-3.757-19.726,6.726-36.35" transform="translate(-504.197 -261.349)" fill="none" stroke="#ffad2a" stroke-linecap="round" stroke-linejoin="round" stroke-width="3.806"/>
        </g>
        <g id="Group_46" data-name="Group 46" transform="translate(11.423 79.255)">
          <path id="Path_188" data-name="Path 188" d="M510.822,351.362s-1.171,5.517,0,7.022,2.464,3.365,5.277,2.042,14.084-6.558,14.62-9.683-4.852-5.021-14.825-1.554Z" transform="translate(-498.431 -284.904)" fill="#7c53ad"/>
          <path id="Path_189" data-name="Path 189" d="M503.88,348.476s-1.17,5.519,0,7.022,2.464,3.365,5.279,2.044,14.085-6.558,14.62-9.683-4.852-5.021-14.825-1.556Z" transform="translate(-503.36 -286.952)" fill="#7c53ad"/>
          <path id="Path_190" data-name="Path 190" d="M504.59,310.827s6.849,26.645,2.422,60.965" transform="translate(-502.487 -310.827)" fill="none" stroke="#f4617e" stroke-linecap="round" stroke-linejoin="round" stroke-width="5.517"/>
          <path id="Path_191" data-name="Path 191" d="M511.4,313.345s6.849,26.647,2.422,60.965" transform="translate(-497.647 -309.039)" fill="none" stroke="#f4617e" stroke-linecap="round" stroke-linejoin="round" stroke-width="5.517"/>
          <path id="Path_192" data-name="Path 192" d="M506.272,324.316s6.384,5.241,9.7,5.407,3.012-8.422.607-12.3-9.353-8.227-11.013-4.737S506.272,324.316,506.272,324.316Z" transform="translate(-502.214 -310.413)" fill="#f4617e"/>
        </g>
        <g id="Group_49" data-name="Group 49" transform="translate(6.983 35.212)">
          <path id="Path_193" data-name="Path 193" d="M525.641,303.228l-.082,29.457c.084,6.5-.5,6.049-2.686,7.319a9.147,9.147,0,0,1-7.993-1.173l-10.557-6.095a7.116,7.116,0,0,1-3.559-6.185l.065-23.49c0-.414.082-.819.109-1.231.274-3.974,1.96-10.132,6.387-12.581,6.924-3.831,13.585,2.271,13.763,2.439C525.121,295.466,525.651,299.392,525.641,303.228Z" transform="translate(-500.764 -283.003)" fill="#fed859"/>
          <g id="Group_48" data-name="Group 48" transform="translate(9.344)">
            <path id="Path_194" data-name="Path 194" d="M510.772,285.542a4.315,4.315,0,0,0-3.769-.07,1.2,1.2,0,0,0,.005,2.245,4.173,4.173,0,0,0,3.766,0A1.15,1.15,0,0,0,510.772,285.542Z" transform="translate(-506.228 -285.072)" fill="#fca579"/>
            <g id="Group_47" data-name="Group 47" transform="translate(0 1.482)">
              <path id="Path_195" data-name="Path 195" d="M510.773,287.1a4.173,4.173,0,0,1-3.766,0,1.354,1.354,0,0,1-.778-1.161l0,0v5.088l0,0a1.38,1.38,0,0,0,.776,1.1,4.172,4.172,0,0,0,3.766,0,1.313,1.313,0,0,0,.775-1.1h0v-5.012A1.325,1.325,0,0,1,510.773,287.1Z" transform="translate(-506.228 -285.939)" fill="#fcb28d"/>
              <path id="Path_196" data-name="Path 196" d="M509.336,285.941c0,.024.007.05.007.073v-.075Z" transform="translate(-504.021 -285.939)" fill="#fcb28d"/>
            </g>
          </g>
        </g>
        <g id="Group_50" data-name="Group 50" transform="translate(9.761 15.494)">
          <path id="Path_197" data-name="Path 197" d="M520.938,282.813v6.415a9.275,9.275,0,0,1-18.55,0v-6.415a9.271,9.271,0,0,1,.257-2.163c.041-.185.091-.364.149-.544a9.274,9.274,0,0,1,18.144,2.707Z" transform="translate(-502.388 -273.542)" fill="#fcb28d"/>
        </g>
        <g id="Group_51" data-name="Group 51" transform="translate(28.148 15.184)">
          <path id="Path_198" data-name="Path 198" d="M528.979,280.174c-.739-2.534-1.813-5.553-3.016-6.813" transform="translate(-504.034 -273.361)" fill="none" stroke="#fcb28d" stroke-linecap="round" stroke-linejoin="round" stroke-width="3.388"/>
          <path id="Path_199" data-name="Path 199" d="M513.14,306.907c8.708-5.861,17.6-9.66,23.75-28.328" transform="translate(-513.14 -269.656)" fill="none" stroke="#ffad2a" stroke-linecap="round" stroke-linejoin="round" stroke-width="3.806"/>
        </g>
        <path id="Path_200" data-name="Path 200" d="M514.029,274.107a8.034,8.034,0,0,0-3.56,1.016c-.912-2.432-2.885-5.52-6.8-3.617-6.073,2.948-9.611,10.962-4.6,14.129a20.412,20.412,0,0,0,6.466,2.668c-.127,4.183.759,8.961,5.363,10.716,2.315.881,5.029,1,6.255-.279a9.286,9.286,0,0,0,1.784-3.612s-1.727.992-2.062-1.238.335-2.563,1.452-2.061,2.045-.976,2.045-.976.457-3.059,2.184-4.508a9.635,9.635,0,0,0,2.439-4.433C526.285,278.849,519.269,273.828,514.029,274.107Z" transform="translate(-496.68 -259.915)" fill="#2f305e"/>
      </g>
    </g>
  </g>
</svg>
