<svg xmlns="http://www.w3.org/2000/svg" xmlns:xlink="http://www.w3.org/1999/xlink" width="528.075" height="525.435" viewBox="0 0 528.075 525.435">
  <defs>
    <clipPath id="clip-path">
      <rect id="Rectangle_3" data-name="Rectangle 3" width="242.549" height="251.806" fill="none"/>
    </clipPath>
    <linearGradient id="linear-gradient" x1="0.5" x2="0.5" y2="0.834" gradientUnits="objectBoundingBox">
      <stop offset="0" stop-color="#fff" stop-opacity="0"/>
      <stop offset="1" stop-color="#fff"/>
    </linearGradient>
  </defs>
  <g id="Objects" transform="translate(19.009 -38.007)">
    <g id="Group_64" data-name="Group 64" transform="translate(0 130.819)">
      <g id="Group_57" data-name="Group 57" transform="translate(0 161.194)">
        <g id="Group_56" data-name="Group 56" transform="translate(0 0)" clip-path="url(#clip-path)">
          <g id="Group_55" data-name="Group 55" transform="translate(-101.506 46.883)">
            <path id="Path_205" data-name="Path 205" d="M159.463,772.487,16.9,710.84c-36-8.349-34.235,36.3-2.084,35.354-43.263,15.331-16.788,78.659,23.657,59.7-21.022,22.182,42.446,85.23,57.639,26.871C130.465,892.27,214.506,828.829,159.463,772.487Z" transform="translate(105.22 -560.546)" fill="#b5bab3"/>
            <path id="Path_206" data-name="Path 206" d="M22.155,746.56l-157.28-68.008c-39.718-9.211-37.768,40.04-2.3,39-47.727,16.914-18.52,86.777,26.1,65.865-23.192,24.471,46.826,94.026,63.587,29.644C-9.835,878.705,82.879,808.716,22.155,746.56Z" transform="translate(164.469 -548.144)" fill="#b5bab3"/>
            <path id="Path_207" data-name="Path 207" d="M-30.877,499.506c-8.969-14.7-16.469-39.14-42.855-29.25-21.82,8.179-22.866,30.011-15.05,45.205-63.867-31.1-87.148,51.243-27.761,59.315-15.8,4.4-12.441,25.987-6.132,36.038,14.157,22.556,42.817,16.146,63.585-.376Z" transform="translate(159.244 -467.965)" fill="#caccca"/>
            <path id="Path_208" data-name="Path 208" d="M47.4,602.625C36.658,588.433-14.176,560.44-14.176,560.44c-14.089-.471-34.492,5.171-38.595,21.786-3.634,14.714,10.107,31.863,23.83,34.1-14.951,2.716-33.087,15.382-29.786,32.34,4.9,25.169,23.031,20.4,39.247,16.625-9.169,10.348,4.939,28.271,14.322,31.776C28.81,709.759,62.156,622.119,47.4,602.625Z" transform="translate(124.139 -503.357)" fill="#dfe1de"/>
            <path id="Path_209" data-name="Path 209" d="M158.892,621.5c17.5-15.555,11.687-34.116.544-43.784,14.338,8.75,37.2-6.98,40.471-22.109,2.692-12.44-6.024-24.64-13.335-31.72l3.693-1.713c3.784-14.125-22.061-27.825-34.359-25.643-11.767,2.088-19.914,12.759-23.472,22.45,9.216-48.42-47.021-63.138-69.641-22.821.341-14.906-21.776-24.24-35.242-22.479-18.876,2.469-38.654,14.4-45.81,31.838-8.547,20.822,3.6,51.3,30.119,53.036-46.018,26.376,2.313,91.893,35.96,56.688-6.583,25.834,14.546,35.1,32.068,33.648,16.769-1.395,34.2-18.624,27.71-34.059C119.2,632.794,140.012,638.291,158.892,621.5Z" transform="translate(109.532 -469.829)" fill="#fcfcfc"/>
            <path id="Path_210" data-name="Path 210" d="M201.4,720.3c6-22.105-6.99-47.155-31.187-44.922,13.419-11.64,30.014-36.281,19.593-54-8.593-14.607-34.3-21.1-48.726-12.484,0,0-109.636,39.5-110.509,38.288-32.668,25.149-6.8,67.175,21.858,51.207-39.244,32.258-2.272,74.87,35.279,41.959-5.906,59.591,74.888,54.975,60.6,5.361A38.621,38.621,0,0,0,201.4,720.3Z" transform="translate(95.628 -520.438)" fill="#fcfcfc"/>
            <path id="Path_211" data-name="Path 211" d="M27.551,474.082c-18.876,2.469-38.654,14.4-45.81,31.838-8.547,20.822,3.6,51.3,30.119,53.035-46.018,26.376,2.313,91.893,35.96,56.688-6.583,25.834,14.546,35.1,32.068,33.648,16.769-1.395,34.2-18.624,27.71-34.059,11.6,17.957,32.415,23.454,51.3,6.668,12.286-10.922,13.072-23.323,8.6-33.088-17.112,14.2-49.1,17.8-56.845-5.692,2.7,27.286-32.977,12.345-33.164-5.153-8.689,18.28-39.774,36.542-58.542,8.166C6.684,567.6,30.352,545.021,44.58,535.329,21.522,545.74-3.475,532.964.327,512.133,5.151,485.691,35.458,466.1,62.42,496.051l.114-2.535C60.065,480.406,40.074,472.445,27.551,474.082Z" transform="translate(109.532 -470.226)" fill="#dfe1de"/>
            <path id="Path_212" data-name="Path 212" d="M93.367,783.762c-5.321,62.9,80.042,55.52,63.675,2.8,21.932,9.967,47.949-2.377,54.767-28.384,6.1-23.261-8.423-49.982-34.583-48.058.755-.637,1.523-1.319,2.29-2.031-1.756.439-4.577,3.45-6.272,4.1,12.764,9.5,25.819,23.965,16.535,40.589-9.764,17.493-31.3,19.874-47.848,12.724,9.757,16.608,9.355,35.69-13.93,38.176-25.018,2.668-24.842-29.659-29.519-54.891-15.432,68.3-69.957,30.874-48.665-8.006C7.464,783.4,60.124,835.677,93.367,783.762Z" transform="translate(88.477 -559.893)" fill="#dfe1de"/>
          </g>
        </g>
      </g>
      <g id="Group_60" data-name="Group 60" transform="translate(74.914 0)">
        <path id="Path_213" data-name="Path 213" d="M277.793,445.479c-.064.373-.128.745-.2,1.114-.134.757-.276,1.51-.428,2.263-.1.478-.206.954-.31,1.431q-.325,1.489-.693,2.972c-.186.756-.376,1.51-.581,2.261-.136.507-.286,1.008-.433,1.51-.2.7-.4,1.39-.617,2.084q-.225.719-.461,1.44-.368,1.129-.766,2.251c-.143.4-.281.808-.429,1.209q-.629,1.716-1.312,3.416a101.745,101.745,0,0,0,32.88-22.333c.991-1.005,1.945-2.031,2.886-3.067.158-.174.32-.348.478-.525q1.349-1.509,2.629-3.059c.149-.178.293-.359.44-.539.879-1.078,1.74-2.164,2.569-3.272l.006-.006c.843-1.125,1.652-2.27,2.444-3.422.1-.14.2-.28.291-.42q1.148-1.693,2.224-3.421c.1-.154.189-.309.283-.464q2.235-3.632,4.143-7.409c.035-.073.074-.143.11-.216q.945-1.882,1.809-3.8c.046-.1.093-.211.143-.315a104.27,104.27,0,0,0,4.576-12.222c.008-.032.018-.063.028-.094a109.836,109.836,0,0,0,2.324-53.758,326.3,326.3,0,0,0,41.523-35.711c24.342-24.728,43.48-51.756,56.93-78.791.209.276.423.554.63.828l3.724-10.048c11.82-26.292,18.192-52.344,18.621-76.049,0-.1.009-.2.011-.3.023-1.576.017-3.136-.011-4.69,0-.247,0-.5,0-.743-.033-1.45-.1-2.885-.181-4.317-.018-.325-.023-.657-.044-.983q-.164-2.605-.432-5.164-2.556-.234-5.155-.359c-.379-.019-.765-.02-1.142-.033-1.374-.057-2.751-.1-4.144-.117-.313,0-.63.008-.943.009-1.482,0-2.97.006-4.471.052-.171.006-.345.017-.516.024-50.7,1.708-111.73,30.784-162.47,82.328a326.259,326.259,0,0,0-35.071,42.1c-34.228-6.491-70.1,3.017-95.461,28.779a101.955,101.955,0,0,0-21.837,33.239c26.439-11.228,56.98-11.148,84.53.078-1.4,3.834-2.72,7.657-3.881,11.454q4.246,2.25,8.373,4.824l-7.947,8.071,12.974,12.809c-10.2,14.071-16.943,27.154-19.142,37.1,9.894-2.342,22.866-9.279,36.769-19.693l15.566,15.368,7.324-7.441c1.025,1.7,2.022,3.406,2.967,5.132,3.754-1.213,7.534-2.579,11.319-4.03a112.8,112.8,0,0,1,8.037,59.6c-.027.184-.049.37-.078.555C278.073,443.813,277.936,444.647,277.793,445.479Z" transform="translate(-121.382 -131.509)" fill="#1f3035" opacity="0.29"/>
        <g id="Group_59" data-name="Group 59" transform="translate(8.269)">
          <path id="Path_214" data-name="Path 214" d="M201.315,548.059c72.264-6.537,69.386-44.4,69.386-44.4l-12.035-12.195-.115-.117-12.034-12.194s-37.827-3.378-45.317,68.794l-.144.142c.044,0,.086-.01.13-.013,0,.043-.01.086-.015.13Z" transform="translate(-160.152 -264.16)" fill="#eaab28"/>
          <g id="Group_58" data-name="Group 58">
            <g id="rocket">
              <path id="Path_215" data-name="Path 215" d="M260.79,458.466l43.727,43.127,13.961-14.168-43.719-43.131Z" transform="translate(-183.02 -250.827)" fill="#bf372d"/>
              <path id="Path_216" data-name="Path 216" d="M306.714,359.943c-42.166-41.59-109.45-41.727-150.282-.293a103.31,103.31,0,0,0-21.652,32.433c38.645-16.98,85.8-9.511,118.167,22.417s40.5,79,24.07,117.885a103.2,103.2,0,0,0,32.113-22.111C349.963,468.838,348.88,401.535,306.714,359.943Z" transform="translate(-134.78 -206.559)" fill="#284865"/>
              <path id="Path_217" data-name="Path 217" d="M353.8,469.121a106.851,106.851,0,0,1,7.065,96.133,103.2,103.2,0,0,0,32.113-22.111c34.3-34.815,39-87.885,14.626-128.621Z" transform="translate(-218.627 -239.429)" fill="#121d21"/>
              <path id="Path_218" data-name="Path 218" d="M331.724,213.267C296.877,248.629,272.6,288.5,260.495,326.035a127.427,127.427,0,0,1,53.875,53.141c37.333-12.648,76.838-37.494,111.682-72.855,55.356-56.168,84.106-123.725,79.628-175.185C454.184,127.384,387.076,157.1,331.724,213.267Z" transform="translate(-182.907 -130.82)" fill="#fcfcfc"/>
              <path id="Path_219" data-name="Path 219" d="M523.884,131.333c-5.877-.428-215.838,215.834-215.838,215.834.541.516,1.089,1.015,1.623,1.541a127.1,127.1,0,0,1,22.9,30.665c37.333-12.648,76.838-37.494,111.682-72.855C499.612,250.349,528.362,182.792,523.884,131.333Z" transform="translate(-201.111 -131.016)" fill="#cfcfcf"/>
              <path id="Path_220" data-name="Path 220" d="M292.341,415.507C269.317,438.867,253.5,463.15,249.722,479c15.788-4.007,39.837-20.169,62.859-43.531s38.834-47.649,42.618-63.5C339.407,375.982,315.361,392.146,292.341,415.507Z" transform="translate(-178.783 -223.14)" fill="#3c6075"/>
              <path id="Path_221" data-name="Path 221" d="M249.93,478.247c-.061.251-.149.514-.208.757,15.788-4.007,39.837-20.169,62.859-43.531s38.834-47.649,42.618-63.5c-.242.066-.51.159-.752.214Z" transform="translate(-178.783 -223.14)" fill="#121d21"/>
              <path id="Path_222" data-name="Path 222" d="M514.614,151.122c12.066,10.444,24.088,21.492,35.947,33.192s23.127,23.6,33.726,35.527c14.446-31.315,20.985-62.174,18.677-88.7C576.414,129.2,545.708,136.23,514.614,151.122Z" transform="translate(-280.191 -130.821)" fill="#df642e"/>
              <path id="Path_223" data-name="Path 223" d="M574.708,185.6c11.428,11.327,22.329,22.844,32.584,34.382,14.446-31.315,20.985-62.174,18.677-88.7-.478-.035-.947-.061-1.428-.089Z" transform="translate(-303.197 -130.961)" fill="#bf372d"/>
              <path id="Path_224" data-name="Path 224" d="M496.428,259.282l-.291-.289a29.43,29.43,0,0,0-20.723-8.564,28.381,28.381,0,0,0-20.449,8.474c-11.013,11.18-10.844,29.529.378,40.9l.289.288c11.534,11.377,30,11.412,41.17.078C507.816,288.993,507.647,270.65,496.428,259.282Z" transform="translate(-254.235 -176.609)" fill="#eaab28"/>
              <path id="Path_225" data-name="Path 225" d="M495.579,268.37a21.847,21.847,0,1,0,.5,31.176A22.059,22.059,0,0,0,495.579,268.37Z" transform="translate(-258.598 -180.996)" fill="#447470"/>
            </g>
          </g>
        </g>
      </g>
      <g id="Group_63" data-name="Group 63" transform="translate(83.183)">
        <path id="Path_226" data-name="Path 226" d="M291.292,449.979c-.064.373-.128.745-.2,1.113-.134.758-.276,1.51-.428,2.264-.1.478-.206.954-.31,1.431q-.325,1.489-.693,2.972c-.186.757-.376,1.51-.581,2.261-.135.508-.286,1.009-.433,1.511-.2.7-.4,1.39-.617,2.084-.149.48-.3.96-.46,1.44q-.369,1.129-.767,2.251c-.142.4-.281.809-.429,1.21q-.628,1.715-1.312,3.415a101.726,101.726,0,0,0,32.88-22.332c.991-1.005,1.945-2.031,2.886-3.068.159-.174.321-.348.478-.524q1.35-1.509,2.629-3.059c.149-.178.293-.359.441-.539.879-1.078,1.74-2.164,2.568-3.272l.006-.006c.843-1.126,1.652-2.27,2.445-3.422.1-.139.194-.279.291-.419q1.147-1.693,2.223-3.421c.1-.154.189-.309.283-.465q2.235-3.631,4.144-7.408c.035-.073.074-.143.109-.217q.945-1.881,1.81-3.8c.046-.1.093-.211.143-.315a104.267,104.267,0,0,0,4.575-12.222c.009-.033.019-.064.029-.094a109.843,109.843,0,0,0,2.324-53.758,326.342,326.342,0,0,0,41.523-35.711c24.342-24.728,43.48-51.755,56.93-78.79.209.276.423.554.63.828l3.725-10.048c11.819-26.293,18.191-52.344,18.62-76.049,0-.1.009-.2.01-.3.023-1.576.017-3.136-.011-4.69,0-.247,0-.5,0-.743-.033-1.45-.1-2.885-.181-4.317-.018-.325-.023-.657-.043-.983q-.164-2.605-.433-5.165-2.556-.233-5.155-.359c-.378-.019-.765-.02-1.141-.033-1.374-.057-2.752-.1-4.144-.117-.314,0-.63.007-.944.009-1.482,0-2.97.006-4.471.052-.17.006-.345.017-.516.024-50.7,1.708-111.73,30.784-162.469,82.328a326.265,326.265,0,0,0-35.071,42.1c-34.228-6.491-70.1,3.017-95.461,28.779a101.958,101.958,0,0,0-21.837,33.239c26.44-11.228,56.98-11.148,84.53.078-1.4,3.835-2.72,7.657-3.881,11.454q4.245,2.25,8.373,4.824l-7.947,8.071,12.974,12.809c-10.2,14.071-16.943,27.154-19.141,37.1,9.893-2.342,22.865-9.28,36.769-19.693l15.565,15.368,7.324-7.441c1.025,1.7,2.022,3.4,2.967,5.132,3.753-1.213,7.533-2.579,11.319-4.03a112.817,112.817,0,0,1,8.037,59.6c-.028.184-.05.37-.078.555C291.572,448.313,291.435,449.146,291.292,449.979Z" transform="translate(-134.819 -133.231)" fill="#1f3035" opacity="0.29"/>
        <g id="Group_62" data-name="Group 62">
          <path id="Path_227" data-name="Path 227" d="M201.315,548.059c72.264-6.537,69.386-44.4,69.386-44.4l-12.035-12.195-.115-.117-12.034-12.194s-37.827-3.378-45.317,68.794l-.144.142c.044,0,.086-.01.13-.013,0,.043-.01.086-.015.13Z" transform="translate(-160.152 -264.16)" fill="#eaab28"/>
          <g id="Group_61" data-name="Group 61">
            <g id="rocket-2" data-name="rocket">
              <path id="Path_228" data-name="Path 228" d="M260.79,458.466l43.727,43.127,13.961-14.168-43.719-43.131Z" transform="translate(-183.02 -250.826)" fill="#bf372d"/>
              <path id="Path_229" data-name="Path 229" d="M306.714,359.943c-42.166-41.59-109.45-41.727-150.282-.293a103.31,103.31,0,0,0-21.652,32.433c38.645-16.98,85.8-9.511,118.167,22.417s40.5,79,24.07,117.885a103.2,103.2,0,0,0,32.113-22.111C349.963,468.838,348.88,401.535,306.714,359.943Z" transform="translate(-134.78 -206.559)" fill="#284865"/>
              <path id="Path_230" data-name="Path 230" d="M353.8,469.121a106.851,106.851,0,0,1,7.065,96.133,103.2,103.2,0,0,0,32.113-22.111c34.3-34.815,39-87.885,14.626-128.621Z" transform="translate(-218.627 -239.428)" fill="#121d21"/>
              <path id="Path_231" data-name="Path 231" d="M331.724,213.267C296.877,248.629,272.6,288.5,260.495,326.035a127.427,127.427,0,0,1,53.875,53.141c37.333-12.648,76.838-37.494,111.682-72.855,55.356-56.168,84.106-123.725,79.628-175.185C454.184,127.384,387.076,157.1,331.724,213.267Z" transform="translate(-182.907 -130.819)" fill="#fcfcfc"/>
              <path id="Path_232" data-name="Path 232" d="M509.187,163.538c-5.013,2.332-8.525,4.37-8.525,4.37-.206-.048,44.2,34.839,73.613,74.181,0,0,3.7-7.252,4.67-9.724C578.313,207.874,542.663,164.632,509.187,163.538Z" transform="translate(-274.849 -143.345)" fill="#284865"/>
              <path id="Path_233" data-name="Path 233" d="M292.341,415.507C269.317,438.867,253.5,463.15,249.722,479c15.788-4.007,39.837-20.169,62.859-43.531s38.834-47.649,42.618-63.5C339.407,375.982,315.361,392.146,292.341,415.507Z" transform="translate(-178.783 -223.14)" fill="#3c6075"/>
              <path id="Path_234" data-name="Path 234" d="M249.93,478.247c-.061.251-.149.514-.208.757,15.788-4.007,39.837-20.169,62.859-43.531s38.834-47.649,42.618-63.5c-.242.066-.51.159-.752.214Z" transform="translate(-178.783 -223.14)" fill="#121d21"/>
              <path id="Path_235" data-name="Path 235" d="M514.375,151.047c12.066,10.444,24.235,21.566,36.094,33.266s23.127,23.6,33.726,35.527c14.446-31.315,20.985-62.174,18.677-88.7C576.322,129.2,545.469,136.155,514.375,151.047Z" transform="translate(-280.099 -130.819)" fill="#df642e"/>
              <path id="Path_236" data-name="Path 236" d="M574.708,185.6c11.428,11.327,22.329,22.844,32.584,34.382,14.446-31.315,20.985-62.174,18.677-88.7-.478-.035-.947-.061-1.428-.089Z" transform="translate(-303.197 -130.96)" fill="#bf372d"/>
              <path id="Path_237" data-name="Path 237" d="M569.75,182.779c11.428,11.327,25.389,25.714,35.644,37.251,14.446-31.315,20.985-62.174,18.677-88.7-.478-.035-.947-.062-1.428-.09Z" transform="translate(-301.298 -130.979)" fill="#bf372d"/>
              <path id="Path_238" data-name="Path 238" d="M496.428,259.282l-.291-.289a29.43,29.43,0,0,0-20.723-8.564,28.381,28.381,0,0,0-20.449,8.474c-11.013,11.18-10.844,29.529.378,40.9l.289.288c11.534,11.377,30,11.412,41.17.078C507.816,288.993,507.647,270.65,496.428,259.282Z" transform="translate(-254.235 -176.609)" fill="#eaab28"/>
              <path id="Path_239" data-name="Path 239" d="M495.579,268.37a21.847,21.847,0,1,0,.5,31.176A22.059,22.059,0,0,0,495.579,268.37Z" transform="translate(-258.598 -180.996)" fill="#284865"/>
            </g>
          </g>
        </g>
      </g>
      <path id="Path_240" data-name="Path 240" d="M523.884,131.333c-5.877-.428-215.838,215.834-215.838,215.834.541.516,1.089,1.015,1.623,1.541a127.1,127.1,0,0,1,22.9,30.665c37.333-12.648,76.838-37.494,111.682-72.855C499.612,250.349,528.362,182.792,523.884,131.333Z" transform="translate(-117.928 -131.015)" fill="#cfcfcf" opacity="0.22"/>
      <path id="Path_241" data-name="Path 241" d="M523.884,131.333c-5.877-.428-215.838,215.834-215.838,215.834.541.516,1.089,1.015,1.623,1.541a127.1,127.1,0,0,1,22.9,30.665c37.333-12.648,76.838-37.494,111.682-72.855C499.612,250.349,528.362,182.792,523.884,131.333Z" transform="translate(-117.928 -131.015)" fill="#cfcfcf" opacity="0.22"/>
      <path id="Path_668" data-name="Path 668" d="M0,0H218V36H0Z" transform="translate(-5 377)" fill="url(#linear-gradient)"/>
    </g>
  </g>
</svg>
